<svg width="155" height="50" viewBox="0 0 155 50" fill="none" xmlns="http://www.w3.org/2000/svg">
<rect width="155" height="50" fill="#212426"/>
<path d="M67.8841 6.96946H62.2756V22.9541H67.8841C73.0099 22.9541 76.3428 19.8167 76.3428 14.9847C76.3428 10.1297 73.0099 6.96946 67.8841 6.96946ZM65.4936 20.2289V9.67174H67.7692C71.1481 9.67174 73.0559 11.6641 73.0559 14.9847C73.0559 18.3053 71.1481 20.2289 67.7692 20.2289H65.4936Z" fill="white"/>
<path d="M89.8997 16.6793C89.8997 18.7557 89.348 20.3587 88.2447 21.4885C87.1568 22.6182 85.6703 23.1831 83.7855 23.1831C82.6209 23.1831 81.5789 22.9312 80.6595 22.4274C79.7554 21.9236 79.0428 21.1908 78.5218 20.2289C78.0008 19.2518 77.7403 18.0686 77.7403 16.6793C77.7403 14.603 78.2843 13.0076 79.3723 11.8931C80.4603 10.7786 81.9543 10.2214 83.8545 10.2214C85.0344 10.2214 86.0764 10.4733 86.9805 10.9771C87.8846 11.4809 88.5972 12.2137 89.1182 13.1755C89.6392 14.1221 89.8997 15.29 89.8997 16.6793ZM81.2341 16.6793C81.2341 17.916 81.4333 18.8549 81.8317 19.4961C82.2455 20.1221 82.9121 20.4351 83.8315 20.4351C84.7356 20.4351 85.3869 20.1221 85.7853 19.4961C86.199 18.8549 86.4059 17.916 86.4059 16.6793C86.4059 15.4427 86.199 14.519 85.7853 13.9084C85.3869 13.2824 84.7279 12.9694 83.8085 12.9694C82.9044 12.9694 82.2455 13.2824 81.8317 13.9084C81.4333 14.519 81.2341 15.4427 81.2341 16.6793ZM83.8085 27.7633C83.2875 27.7633 82.8431 27.6411 82.4753 27.3969C82.1229 27.1526 81.9467 26.7175 81.9467 26.0915C81.9467 25.4503 82.1229 25.0076 82.4753 24.7633C82.8431 24.5343 83.2875 24.4198 83.8085 24.4198C84.3142 24.4198 84.7509 24.5343 85.1187 24.7633C85.4865 25.0076 85.6703 25.4503 85.6703 26.0915C85.6703 26.7175 85.4865 27.1526 85.1187 27.3969C84.7509 27.6411 84.3142 27.7633 83.8085 27.7633ZM85.8542 5.41221C86.0688 5.74809 86.3446 6.12977 86.6817 6.55725C87.0342 6.96946 87.3943 7.37404 87.762 7.77098C88.1298 8.16793 88.4516 8.5038 88.7274 8.77861V9.07632H86.4519C86.0534 8.83204 85.6167 8.5496 85.1417 8.22899C84.6666 7.89312 84.2299 7.51907 83.8315 7.10686C83.4331 7.51907 83.004 7.88548 82.5443 8.20609C82.0846 8.5267 81.6555 8.81678 81.2571 9.07632H78.9815V8.77861C79.2727 8.48853 79.5945 8.15266 79.9469 7.77098C80.3147 7.37404 80.6671 6.96946 81.0043 6.55725C81.3567 6.12977 81.6402 5.74809 81.8547 5.41221H85.8542Z" fill="white"/>
<path d="M93.6956 8.75571C94.8219 8.75571 95.6493 7.93129 95.6493 6.87786C95.6493 5.82442 94.8219 5 93.6956 5C92.5233 5 91.6958 5.82442 91.6958 6.87786C91.6958 7.93129 92.5233 8.75571 93.6956 8.75571ZM92.0636 10.2672V25.061C92.0636 25.9083 91.7188 26.2747 90.7304 26.2747H89.811V28.9999H91.2361C93.6956 28.9999 95.2816 27.9694 95.2816 25.0381V10.2672H92.0636Z" fill="white"/>
<path d="M98.0012 22.9541H101.219V10.2672H98.0012V22.9541ZM99.6332 8.75571C100.76 8.75571 101.61 7.93129 101.61 6.87786C101.61 5.82442 100.76 5 99.6332 5C98.4839 5 97.6565 5.82442 97.6565 6.87786C97.6565 7.93129 98.4839 8.75571 99.6332 8.75571Z" fill="white"/>
<path d="M121.753 22.9541H124.971V15.5114C124.971 12.0076 122.81 10.0839 119.753 10.0839C117.891 10.0839 116.213 11.0687 115.386 12.5114C114.512 10.9313 112.88 10.0839 110.904 10.0839C109.318 10.0839 107.961 10.7481 107.157 11.8015V10.2672H103.939V22.9541H107.157V15.9465C107.157 13.9313 108.283 12.8778 110.03 12.8778C111.731 12.8778 112.857 13.9313 112.857 15.9465V22.9541H116.075V15.9465C116.075 13.9313 117.202 12.8778 118.926 12.8778C120.626 12.8778 121.753 13.9313 121.753 15.9465V22.9541Z" fill="white"/>
<path d="M126.737 16.5648C126.737 20.5267 129.312 23.1602 132.53 23.1602C134.552 23.1602 136 22.1984 136.759 21.0992V22.9541H140V10.2672H136.759V12.0763C136 11.0229 134.598 10.061 132.553 10.061C129.312 10.061 126.737 12.603 126.737 16.5648ZM136.759 16.6106C136.759 19.0152 135.15 20.3434 133.38 20.3434C131.656 20.3434 130.024 18.9694 130.024 16.5648C130.024 14.1603 131.656 12.8778 133.38 12.8778C135.15 12.8778 136.759 14.2061 136.759 16.6106Z" fill="white"/>
<path d="M72.0877 45.8201H70.3478L63.7399 35.7249V45.8201H62V32.7198H63.7399L70.3658 42.8599V32.7198H72.0877V45.8201Z" fill="white"/>
<path d="M80.7019 46C79.3797 46 78.304 45.5681 77.4746 44.7044C76.6452 43.8346 76.2305 42.674 76.2305 41.2224V40.9165C76.2305 39.9507 76.4138 39.09 76.7804 38.3342C77.1531 37.5724 77.6699 36.9786 78.331 36.5527C78.9981 36.1208 79.7193 35.9049 80.4946 35.9049C81.7627 35.9049 82.7483 36.3218 83.4515 37.1555C84.1546 37.9893 84.5062 39.1829 84.5062 40.7365V41.4293H77.8983C77.9223 42.389 78.2018 43.1658 78.7367 43.7596C79.2776 44.3475 79.9627 44.6414 80.7921 44.6414C81.381 44.6414 81.8799 44.5214 82.2885 44.2815C82.6972 44.0416 83.0548 43.7236 83.3613 43.3278L84.38 44.1195C83.5626 45.3732 82.3366 46 80.7019 46ZM80.4946 37.2725C79.8215 37.2725 79.2565 37.5184 78.7998 38.0103C78.343 38.4961 78.0606 39.1799 77.9524 40.0617H82.8384V39.9357C82.7904 39.09 82.562 38.4362 82.1533 37.9743C81.7446 37.5064 81.1917 37.2725 80.4946 37.2725Z" fill="white"/>
<path d="M90.4611 33.7275V36.0848H92.2821V37.3715H90.4611V43.4087C90.4611 43.7986 90.5422 44.0925 90.7045 44.2905C90.8667 44.4824 91.1432 44.5784 91.5338 44.5784C91.7262 44.5784 91.9906 44.5424 92.3271 44.4704V45.8201C91.8884 45.94 91.4617 46 91.047 46C90.3018 46 89.7399 45.7751 89.3612 45.3252C88.9826 44.8753 88.7933 44.2365 88.7933 43.4087V37.3715H87.0174V36.0848H88.7933V33.7275H90.4611Z" fill="white"/>
<path d="M104.628 43.5257L106.504 36.0848H108.171L105.332 45.8201H103.979L101.609 38.4422L99.3007 45.8201H97.9485L95.1178 36.0848H96.7765L98.6967 43.3728L100.968 36.0848H102.312L104.628 43.5257Z" fill="white"/>
<path d="M111.187 40.8625C111.187 39.9087 111.374 39.051 111.746 38.2892C112.125 37.5274 112.648 36.9396 113.315 36.5257C113.988 36.1118 114.754 35.9049 115.614 35.9049C116.942 35.9049 118.015 36.3638 118.832 37.2815C119.655 38.1992 120.067 39.4199 120.067 40.9434V41.0604C120.067 42.0081 119.884 42.8599 119.517 43.6157C119.157 44.3655 118.637 44.9503 117.958 45.3702C117.284 45.7901 116.509 46 115.632 46C114.31 46 113.237 45.5411 112.413 44.6234C111.596 43.7057 111.187 42.491 111.187 40.9794V40.8625ZM112.864 41.0604C112.864 42.1401 113.114 43.0069 113.612 43.6607C114.117 44.3145 114.79 44.6414 115.632 44.6414C116.479 44.6414 117.152 44.3115 117.651 43.6517C118.15 42.9859 118.399 42.0561 118.399 40.8625C118.399 39.7948 118.144 38.931 117.633 38.2712C117.128 37.6054 116.455 37.2725 115.614 37.2725C114.79 37.2725 114.126 37.5994 113.621 38.2532C113.117 38.907 112.864 39.8428 112.864 41.0604Z" fill="white"/>
<path d="M128.627 37.5784C128.375 37.5364 128.101 37.5154 127.807 37.5154C126.713 37.5154 125.971 37.9803 125.58 38.91V45.8201H123.912V36.0848H125.535L125.562 37.2095C126.109 36.3398 126.884 35.9049 127.888 35.9049C128.213 35.9049 128.459 35.9469 128.627 36.0308V37.5784Z" fill="white"/>
<path d="M134.645 41.3123L133.599 42.401V45.8201H131.932V32H133.599V40.3586L134.492 39.2879L137.53 36.0848H139.558L135.763 40.1517L140 45.8201H138.044L134.645 41.3123Z" fill="white"/>
<path d="M35.032 39.8665C43.4402 39.8665 50.2564 33.0613 50.2564 24.6666C50.2564 16.2719 43.4402 9.46667 35.032 9.46667C26.6239 9.46667 19.8077 16.2719 19.8077 24.6666C19.8077 33.0613 26.6239 39.8665 35.032 39.8665Z" fill="url(#paint0_linear_196_271)"/>
<path d="M53.0592 12.3306C55.7804 6.35553 49.7697 7.13996 43.8461 12.2873C43.9796 12.4206 44.6474 12.9539 45.048 13.2206C51.9588 8.95271 49.6559 13.8567 48.3827 16.1588C47.1097 18.4609 35.5742 32.6615 26.4809 38.0674C19.2063 42.3922 21.3919 37.2789 23.2799 34.2872L22.345 33.0872L20.5313 35.6877C18.271 39.2746 15.4131 45.7447 22.0642 42.9303C34.2232 37.3949 48.3827 22.5995 53.0592 12.3306Z" fill="url(#paint1_linear_196_271)"/>
<g filter="url(#filter0_i_196_271)">
<path d="M33.1222 33.0665L34.7729 31.5999C35.3341 32.1156 35.8776 32.6061 36.3959 33.0665L34.7729 34.5012C34.2411 34.0505 33.6894 33.5718 33.1222 33.0665Z" fill="url(#paint2_linear_196_271)"/>
</g>
<path d="M25.9621 12.4901L24.9823 13.2105C22.2492 11.5124 17.7165 9.77305 21.45 16.4009C24.1851 21.2564 30.0946 27.3013 34.7728 31.5999C35.3341 32.1156 35.8776 32.6062 36.3958 33.0665C37.4542 34.0068 38.4069 34.8212 39.1891 35.4663C44.6552 39.5313 51.333 43.0134 46.6506 34.5332L47.3183 33.5999C51.5726 37.6908 57.4698 49.8745 41.2776 39.4542C40.476 38.9382 37.988 37.2265 34.7728 34.5012C34.2411 34.0505 33.6894 33.5719 33.1222 33.0665C28.1836 28.6662 22.066 22.2263 17.634 14.2911C13.4451 6.79132 18.1496 6.08351 25.9621 12.4901Z" fill="url(#paint3_linear_196_271)"/>
<defs>
<filter id="filter0_i_196_271" x="29.1222" y="31.5999" width="7.27368" height="6.90137" filterUnits="userSpaceOnUse" color-interpolation-filters="sRGB">
<feFlood flood-opacity="0" result="BackgroundImageFix"/>
<feBlend mode="normal" in="SourceGraphic" in2="BackgroundImageFix" result="shape"/>
<feColorMatrix in="SourceAlpha" type="matrix" values="0 0 0 0 0 0 0 0 0 0 0 0 0 0 0 0 0 0 127 0" result="hardAlpha"/>
<feOffset dx="-4" dy="4"/>
<feGaussianBlur stdDeviation="2"/>
<feComposite in2="hardAlpha" operator="arithmetic" k2="-1" k3="1"/>
<feColorMatrix type="matrix" values="0 0 0 0 0.0999942 0 0 0 0 0.0802951 0 0 0 0 0.154167 0 0 0 0.16 0"/>
<feBlend mode="normal" in2="shape" result="effect1_innerShadow_196_271"/>
</filter>
<linearGradient id="paint0_linear_196_271" x1="50.2564" y1="21.7333" x2="19.8148" y2="30.292" gradientUnits="userSpaceOnUse">
<stop stop-color="#8D57DE"/>
<stop offset="1" stop-color="#D6D6FC"/>
</linearGradient>
<linearGradient id="paint1_linear_196_271" x1="3.50053" y1="0.9177" x2="91.7139" y2="-2.91069" gradientUnits="userSpaceOnUse">
<stop stop-color="#FF8811"/>
<stop offset="1" stop-color="#FF1267"/>
</linearGradient>
<linearGradient id="paint2_linear_196_271" x1="30.6752" y1="30.8137" x2="45.5868" y2="29.8069" gradientUnits="userSpaceOnUse">
<stop stop-color="#FF8811"/>
<stop offset="1" stop-color="#FF1267"/>
</linearGradient>
<linearGradient id="paint3_linear_196_271" x1="1.58984" y1="0.92861" x2="90.0526" y2="-2.92741" gradientUnits="userSpaceOnUse">
<stop stop-color="#FF8811"/>
<stop offset="1" stop-color="#FF1267"/>
</linearGradient>
</defs>
</svg>
