<svg width="155" height="50" viewBox="0 0 155 50" fill="none" xmlns="http://www.w3.org/2000/svg">
<rect width="155" height="50" fill="white"/>
<path d="M67.6085 6.96946H62V22.9541H67.6085C72.7343 22.9541 76.0672 19.8167 76.0672 14.9847C76.0672 10.1297 72.7343 6.96946 67.6085 6.96946ZM65.218 20.2289V9.67174H67.4936C70.8725 9.67174 72.7803 11.6641 72.7803 14.9847C72.7803 18.3053 70.8725 20.2289 67.4936 20.2289H65.218Z" fill="#212426"/>
<path d="M89.6241 16.6793C89.6241 18.7557 89.0724 20.3587 87.9691 21.4885C86.8811 22.6182 85.3947 23.1831 83.5099 23.1831C82.3453 23.1831 81.3033 22.9312 80.3838 22.4274C79.4797 21.9236 78.7672 21.1908 78.2462 20.2289C77.7252 19.2518 77.4647 18.0686 77.4647 16.6793C77.4647 14.603 78.0087 13.0076 79.0966 11.8931C80.1846 10.7786 81.6787 10.2214 83.5788 10.2214C84.7588 10.2214 85.8008 10.4733 86.7049 10.9771C87.609 11.4809 88.3216 12.2137 88.8426 13.1755C89.3636 14.1221 89.6241 15.29 89.6241 16.6793ZM80.9585 16.6793C80.9585 17.916 81.1577 18.8549 81.5561 19.4961C81.9699 20.1221 82.6364 20.4351 83.5559 20.4351C84.46 20.4351 85.1112 20.1221 85.5096 19.4961C85.9234 18.8549 86.1303 17.916 86.1303 16.6793C86.1303 15.4427 85.9234 14.519 85.5096 13.9084C85.1112 13.2824 84.4523 12.9694 83.5329 12.9694C82.6288 12.9694 81.9699 13.2824 81.5561 13.9084C81.1577 14.519 80.9585 15.4427 80.9585 16.6793ZM83.5329 27.7633C83.0119 27.7633 82.5675 27.6411 82.1997 27.3969C81.8473 27.1526 81.671 26.7175 81.671 26.0915C81.671 25.4503 81.8473 25.0076 82.1997 24.7633C82.5675 24.5343 83.0119 24.4198 83.5329 24.4198C84.0386 24.4198 84.4753 24.5343 84.8431 24.7633C85.2108 25.0076 85.3947 25.4503 85.3947 26.0915C85.3947 26.7175 85.2108 27.1526 84.8431 27.3969C84.4753 27.6411 84.0386 27.7633 83.5329 27.7633ZM85.5786 5.41221C85.7931 5.74809 86.069 6.12977 86.4061 6.55725C86.7585 6.96946 87.1186 7.37404 87.4864 7.77098C87.8542 8.16793 88.176 8.5038 88.4518 8.77861V9.07632H86.1762C85.7778 8.83204 85.3411 8.5496 84.866 8.22899C84.391 7.89312 83.9543 7.51907 83.5559 7.10686C83.1574 7.51907 82.7284 7.88548 82.2687 8.20609C81.809 8.5267 81.3799 8.81678 80.9815 9.07632H78.7059V8.77861C78.997 8.48853 79.3188 8.15266 79.6713 7.77098C80.0391 7.37404 80.3915 6.96946 80.7286 6.55725C81.0811 6.12977 81.3646 5.74809 81.5791 5.41221H85.5786Z" fill="#212426"/>
<path d="M93.4199 8.75571C94.5462 8.75571 95.3737 7.93129 95.3737 6.87786C95.3737 5.82442 94.5462 5 93.4199 5C92.2477 5 91.4202 5.82442 91.4202 6.87786C91.4202 7.93129 92.2477 8.75571 93.4199 8.75571ZM91.788 10.2672V25.061C91.788 25.9083 91.4432 26.2747 90.4548 26.2747H89.5354V28.9999H90.9605C93.4199 28.9999 95.0059 27.9694 95.0059 25.0381V10.2672H91.788Z" fill="#212426"/>
<path d="M97.7256 22.9541H100.944V10.2672H97.7256V22.9541ZM99.3576 8.75571C100.484 8.75571 101.334 7.93129 101.334 6.87786C101.334 5.82442 100.484 5 99.3576 5C98.2083 5 97.3808 5.82442 97.3808 6.87786C97.3808 7.93129 98.2083 8.75571 99.3576 8.75571Z" fill="#212426"/>
<path d="M121.477 22.9541H124.695V15.5114C124.695 12.0076 122.534 10.0839 119.477 10.0839C117.616 10.0839 115.938 11.0687 115.11 12.5114C114.237 10.9313 112.605 10.0839 110.628 10.0839C109.042 10.0839 107.686 10.7481 106.881 11.8015V10.2672H103.663V22.9541H106.881V15.9465C106.881 13.9313 108.008 12.8778 109.754 12.8778C111.455 12.8778 112.582 13.9313 112.582 15.9465V22.9541H115.8V15.9465C115.8 13.9313 116.926 12.8778 118.65 12.8778C120.351 12.8778 121.477 13.9313 121.477 15.9465V22.9541Z" fill="#212426"/>
<path d="M126.462 16.5648C126.462 20.5267 129.036 23.1602 132.254 23.1602C134.277 23.1602 135.725 22.1984 136.483 21.0992V22.9541H139.724V10.2672H136.483V12.0763C135.725 11.0229 134.323 10.061 132.277 10.061C129.036 10.061 126.462 12.603 126.462 16.5648ZM136.483 16.6106C136.483 19.0152 134.874 20.3434 133.104 20.3434C131.381 20.3434 129.749 18.9694 129.749 16.5648C129.749 14.1603 131.381 12.8778 133.104 12.8778C134.874 12.8778 136.483 14.2061 136.483 16.6106Z" fill="#212426"/>
<path d="M72.0877 45.8201H70.3478L63.7399 35.7249V45.8201H62V32.7198H63.7399L70.3658 42.8599V32.7198H72.0877V45.8201Z" fill="#212426"/>
<path d="M80.7019 46C79.3797 46 78.304 45.5681 77.4746 44.7044C76.6452 43.8346 76.2305 42.674 76.2305 41.2224V40.9165C76.2305 39.9507 76.4138 39.09 76.7804 38.3342C77.1531 37.5724 77.6699 36.9786 78.331 36.5527C78.9981 36.1208 79.7193 35.9049 80.4946 35.9049C81.7627 35.9049 82.7483 36.3218 83.4515 37.1555C84.1546 37.9893 84.5062 39.1829 84.5062 40.7365V41.4293H77.8983C77.9223 42.389 78.2018 43.1658 78.7367 43.7596C79.2776 44.3475 79.9627 44.6414 80.7921 44.6414C81.381 44.6414 81.8799 44.5214 82.2885 44.2815C82.6972 44.0416 83.0548 43.7236 83.3613 43.3278L84.38 44.1195C83.5626 45.3732 82.3366 46 80.7019 46ZM80.4946 37.2725C79.8215 37.2725 79.2565 37.5184 78.7998 38.0103C78.343 38.4961 78.0606 39.1799 77.9524 40.0617H82.8384V39.9357C82.7904 39.09 82.562 38.4362 82.1533 37.9743C81.7446 37.5064 81.1917 37.2725 80.4946 37.2725Z" fill="#212426"/>
<path d="M90.4611 33.7275V36.0848H92.2821V37.3715H90.4611V43.4087C90.4611 43.7986 90.5422 44.0925 90.7045 44.2905C90.8667 44.4824 91.1432 44.5784 91.5338 44.5784C91.7262 44.5784 91.9906 44.5424 92.3271 44.4704V45.8201C91.8884 45.94 91.4617 46 91.047 46C90.3018 46 89.7399 45.7751 89.3612 45.3252C88.9826 44.8753 88.7933 44.2365 88.7933 43.4087V37.3715H87.0174V36.0848H88.7933V33.7275H90.4611Z" fill="#212426"/>
<path d="M104.628 43.5257L106.504 36.0848H108.171L105.332 45.8201H103.979L101.609 38.4422L99.3007 45.8201H97.9485L95.1178 36.0848H96.7765L98.6967 43.3728L100.968 36.0848H102.312L104.628 43.5257Z" fill="#212426"/>
<path d="M111.187 40.8625C111.187 39.9087 111.374 39.051 111.746 38.2892C112.125 37.5274 112.648 36.9396 113.315 36.5257C113.988 36.1118 114.754 35.9049 115.614 35.9049C116.942 35.9049 118.015 36.3638 118.832 37.2815C119.655 38.1992 120.067 39.4199 120.067 40.9434V41.0604C120.067 42.0081 119.884 42.8599 119.517 43.6157C119.157 44.3655 118.637 44.9503 117.958 45.3702C117.284 45.7901 116.509 46 115.632 46C114.31 46 113.237 45.5411 112.413 44.6234C111.596 43.7057 111.187 42.491 111.187 40.9794V40.8625ZM112.864 41.0604C112.864 42.1401 113.114 43.0069 113.612 43.6607C114.117 44.3145 114.79 44.6414 115.632 44.6414C116.479 44.6414 117.152 44.3115 117.651 43.6517C118.15 42.9859 118.399 42.0561 118.399 40.8625C118.399 39.7948 118.144 38.931 117.633 38.2712C117.128 37.6054 116.455 37.2725 115.614 37.2725C114.79 37.2725 114.126 37.5994 113.621 38.2532C113.117 38.907 112.864 39.8428 112.864 41.0604Z" fill="#212426"/>
<path d="M128.627 37.5784C128.375 37.5364 128.101 37.5154 127.807 37.5154C126.713 37.5154 125.971 37.9803 125.58 38.91V45.8201H123.912V36.0848H125.535L125.562 37.2095C126.109 36.3398 126.884 35.9049 127.888 35.9049C128.213 35.9049 128.459 35.9469 128.627 36.0308V37.5784Z" fill="#212426"/>
<path d="M134.645 41.3123L133.599 42.401V45.8201H131.932V32H133.599V40.3586L134.492 39.2879L137.53 36.0848H139.558L135.763 40.1517L140 45.8201H138.044L134.645 41.3123Z" fill="#212426"/>
<path d="M35.0321 39.8665C43.4403 39.8665 50.2564 33.0613 50.2564 24.6666C50.2564 16.2719 43.4403 9.46667 35.0321 9.46667C26.6239 9.46667 19.8077 16.2719 19.8077 24.6666C19.8077 33.0613 26.6239 39.8665 35.0321 39.8665Z" fill="url(#paint0_linear_370_428)"/>
<path d="M53.0592 12.3306C55.7804 6.35553 49.7697 7.13996 43.8461 12.2873C43.9796 12.4206 44.6474 12.9539 45.048 13.2206C51.9588 8.95271 49.6559 13.8567 48.3827 16.1588C47.1097 18.4609 35.5742 32.6615 26.4809 38.0674C19.2063 42.3922 21.3919 37.2789 23.2799 34.2872L22.345 33.0872L20.5313 35.6877C18.271 39.2746 15.4131 45.7447 22.0642 42.9303C34.2232 37.3949 48.3827 22.5995 53.0592 12.3306Z" fill="url(#paint1_linear_370_428)"/>
<g filter="url(#filter0_i_370_428)">
<path d="M33.1222 33.0665L34.7729 31.5999C35.3341 32.1156 35.8776 32.6061 36.3959 33.0665L34.7729 34.5012C34.2411 34.0505 33.6894 33.5718 33.1222 33.0665Z" fill="url(#paint2_linear_370_428)"/>
</g>
<path d="M25.9621 12.4901L24.9823 13.2105C22.2492 11.5124 17.7165 9.77305 21.45 16.4009C24.1851 21.2564 30.0946 27.3013 34.7728 31.5999C35.3341 32.1156 35.8776 32.6062 36.3958 33.0665C37.4542 34.0068 38.4069 34.8212 39.1891 35.4663C44.6552 39.5313 51.333 43.0134 46.6506 34.5332L47.3183 33.5999C51.5726 37.6908 57.4698 49.8745 41.2776 39.4542C40.476 38.9382 37.988 37.2265 34.7728 34.5012C34.2411 34.0505 33.6894 33.5719 33.1222 33.0665C28.1836 28.6662 22.066 22.2263 17.634 14.2911C13.4451 6.79132 18.1496 6.08351 25.9621 12.4901Z" fill="url(#paint3_linear_370_428)"/>
<defs>
<filter id="filter0_i_370_428" x="29.1222" y="31.5999" width="7.27368" height="6.90137" filterUnits="userSpaceOnUse" color-interpolation-filters="sRGB">
<feFlood flood-opacity="0" result="BackgroundImageFix"/>
<feBlend mode="normal" in="SourceGraphic" in2="BackgroundImageFix" result="shape"/>
<feColorMatrix in="SourceAlpha" type="matrix" values="0 0 0 0 0 0 0 0 0 0 0 0 0 0 0 0 0 0 127 0" result="hardAlpha"/>
<feOffset dx="-4" dy="4"/>
<feGaussianBlur stdDeviation="2"/>
<feComposite in2="hardAlpha" operator="arithmetic" k2="-1" k3="1"/>
<feColorMatrix type="matrix" values="0 0 0 0 0.0999942 0 0 0 0 0.0802951 0 0 0 0 0.154167 0 0 0 0.16 0"/>
<feBlend mode="normal" in2="shape" result="effect1_innerShadow_370_428"/>
</filter>
<linearGradient id="paint0_linear_370_428" x1="50.2564" y1="21.7333" x2="19.8149" y2="30.292" gradientUnits="userSpaceOnUse">
<stop stop-color="#8D57DE"/>
<stop offset="1" stop-color="#D6D6FC"/>
</linearGradient>
<linearGradient id="paint1_linear_370_428" x1="3.50053" y1="0.9177" x2="91.7139" y2="-2.91069" gradientUnits="userSpaceOnUse">
<stop stop-color="#FF8811"/>
<stop offset="1" stop-color="#FF1267"/>
</linearGradient>
<linearGradient id="paint2_linear_370_428" x1="30.6752" y1="30.8137" x2="45.5868" y2="29.8069" gradientUnits="userSpaceOnUse">
<stop stop-color="#FF8811"/>
<stop offset="1" stop-color="#FF1267"/>
</linearGradient>
<linearGradient id="paint3_linear_370_428" x1="1.58984" y1="0.92861" x2="90.0526" y2="-2.92741" gradientUnits="userSpaceOnUse">
<stop stop-color="#FF8811"/>
<stop offset="1" stop-color="#FF1267"/>
</linearGradient>
</defs>
</svg>
